<?xml version="1.0" encoding="UTF-8"?>
<svg version="1.1" xmlns="http://www.w3.org/2000/svg" width="304" height="260">
<path d="M0 0 C100.32 0 200.64 0 304 0 C304 85.8 304 171.6 304 260 C203.68 260 103.36 260 0 260 C0 174.2 0 88.4 0 0 Z " fill="#10166F" transform="translate(0,0)"/>
<path d="M0 0 C0.70125 -0.01675781 1.4025 -0.03351562 2.125 -0.05078125 C2.74375 0.06910156 3.3625 0.18898438 4 0.3125 C4.99 1.7975 4.99 1.7975 6 3.3125 C8.57728801 3.97156105 8.57728801 3.97156105 11.5625 4.25 C17.36780484 5.10392384 21.80142981 6.68031256 27 9.3125 C28.0828125 9.8075 29.165625 10.3025 30.28125 10.8125 C38.51795912 14.68017211 45.22222882 19.14990868 52 25.3125 C52.70640625 25.91449219 53.4128125 26.51648438 54.140625 27.13671875 C65.99523491 37.89454389 73.37192027 54.55743675 75 70.3125 C75.01609083 71.78246402 75.01518372 73.25268258 75 74.72265625 C74.50685727 83.24969639 74.50685727 83.24969639 78.06640625 90.4296875 C79.69762785 91.29252459 81.35302376 92.1114895 83.03125 92.87890625 C85 94.3125 85 94.3125 85.59375 97.08984375 C85.56558784 99.88141755 85.39803696 102.55081146 85 105.3125 C80.30976546 104.74643721 75.65499974 104.12712495 71 103.3125 C70.9071875 104.00085938 70.814375 104.68921875 70.71875 105.3984375 C67.12539991 119.96712862 54.10345274 134.49334377 41.7734375 142.375 C25.29061963 152.3125 25.29061963 152.3125 17 152.3125 C18.57771116 155.46792231 20.77724673 156.00744806 24 157.3125 C39.70895313 159.86768801 53.08518181 154.49284788 65.8359375 145.6953125 C70.27923237 142.34912748 73.71335719 138.7835186 77 134.3125 C77.61359375 133.49265625 78.2271875 132.6728125 78.859375 131.828125 C91.08966303 114.16215339 93.58694486 90.7634203 89.91918945 69.96484375 C88.19628642 61.37215958 85.34538222 53.87429656 81.29296875 46.12109375 C80.86628906 45.19425781 80.43960938 44.26742187 80 43.3125 C80.33 42.6525 80.66 41.9925 81 41.3125 C89.57649996 54.78551235 94.32094053 67.89626406 98 83.3125 C94.42336263 56.77008583 81.25839982 35.37965859 62 17.3125 C62.99 16.8175 62.99 16.8175 64 16.3125 C85.69355586 27.4229149 101.8932863 46.85055918 109.5 69.8125 C110.4080192 72.62865713 111.23609519 75.45396423 112 78.3125 C112.19287598 79.02237061 112.38575195 79.73224121 112.58447266 80.46362305 C117.82020615 101.51145819 114.03103487 125.98198445 103.08203125 144.56542969 C100.3210312 149.02339817 97.26662036 153.21549925 94 157.3125 C93.4121875 158.1271875 92.824375 158.941875 92.21875 159.78125 C89.40645784 162.98963965 86.25257573 165.22231848 82.75 167.625 C82.1003125 168.07939453 81.450625 168.53378906 80.78125 169.00195312 C79.19207101 170.11204139 77.59665827 171.21319651 76 172.3125 C93.93770652 163.94993286 105.25596005 147.26746298 111.90234375 129.17578125 C114.48515317 120.804155 115.62925159 111.94740116 117 103.3125 C117.33 103.3125 117.66 103.3125 118 103.3125 C118.78058654 120.19629771 114.97989613 135.95672852 108 151.3125 C107.34 151.3125 106.68 151.3125 106 151.3125 C105.79375 151.9725 105.5875 152.6325 105.375 153.3125 C98.27761449 168.79770474 82.81792009 178.90059404 67.64453125 185.34765625 C55.28225175 189.85797093 37.51704808 191.01581956 25.31640625 185.57421875 C12.52673866 178.60783994 4.68609211 170.37077632 0 156.3125 C-0.63615234 157.68921875 -0.63615234 157.68921875 -1.28515625 159.09375 C-7.99934606 173.30496733 -16.1818371 181.92903594 -31.22265625 187.5078125 C-46.24489994 190.70800092 -61.36729958 189.22096305 -75 182.3125 C-76.0621875 181.79429687 -77.124375 181.27609375 -78.21875 180.7421875 C-92.12386077 173.32373923 -105.60611746 160.3585934 -111 145.3125 C-111.31324219 144.68730469 -111.62648438 144.06210938 -111.94921875 143.41796875 C-116.72711418 133.84441619 -118.55988681 122.95034939 -118 112.3125 C-116.13385274 115.67485344 -115.17648533 119.04235711 -114.1875 122.75 C-110.58990946 135.42034624 -106.46515797 145.1014949 -98 155.3125 C-97.11634766 156.44171875 -97.11634766 156.44171875 -96.21484375 157.59375 C-89.97155799 165.26871122 -81.89304533 170.19534938 -73 174.3125 C-73 174.9725 -73 175.6325 -73 176.3125 C-72.01 175.9825 -71.02 175.6525 -70 175.3125 C-70.82242188 174.91160156 -71.64484375 174.51070312 -72.4921875 174.09765625 C-84.89432673 167.78201722 -98.85926335 157.80693372 -104 144.3125 C-104 143.3225 -104 142.3325 -104 141.3125 C-104.66 141.3125 -105.32 141.3125 -106 141.3125 C-115.36285751 118.54697337 -118.94849027 95.15797082 -111 71.3125 C-110.649375 70.19875 -110.29875 69.085 -109.9375 67.9375 C-102.81827983 47.37086396 -87.39439707 30.1146276 -69.34765625 18.4296875 C-67 17.3125 -67 17.3125 -64 18.3125 C-64.70125 18.97894531 -65.4025 19.64539063 -66.125 20.33203125 C-73.42497724 27.382955 -79.36068797 34.85353196 -85 43.3125 C-85 44.3025 -85 45.2925 -85 46.3125 C-83.02 43.3425 -81.04 40.3725 -79 37.3125 C-78.67 37.9725 -78.34 38.6325 -78 39.3125 C-78.98799604 41.45266061 -80.06829772 43.55043743 -81.1875 45.625 C-84.22884563 51.4244768 -86.41218446 57.14445601 -88.17578125 63.47265625 C-89 66.3125 -89 66.3125 -90.04296875 68.74609375 C-94.68097759 81.18352969 -92.32903072 96.89444124 -89 109.3125 C-88.79503906 110.18132812 -88.59007813 111.05015625 -88.37890625 111.9453125 C-83.92967466 129.13426931 -72.08662966 143.27362203 -57 152.3125 C-53.73238489 153.91042598 -50.45195555 155.17580753 -47 156.3125 C-45.906875 156.725 -44.81375 157.1375 -43.6875 157.5625 C-34.6070763 159.40936584 -26.92553987 159.28538776 -19 154.3125 C-19.33 153.6525 -19.66 152.9925 -20 152.3125 C-21.95834202 151.66267309 -23.94351867 151.09298745 -25.9375 150.5625 C-44.90500197 144.88669691 -58.51365834 130.70990101 -67.94921875 113.82421875 C-72 105.939831 -72 105.939831 -72 103.3125 C-73.010625 103.8075 -74.02125 104.3025 -75.0625 104.8125 C-78.77988188 106.42842314 -81.93956657 106.56109797 -86 106.3125 C-86.53972548 102.19459452 -86.80993824 98.40481953 -86 94.3125 C-84.03125 92.8125 -84.03125 92.8125 -81.5625 91.6875 C-78.96259211 90.46694767 -78.96259211 90.46694767 -77 88.3125 C-76.34060505 84.6289834 -76.20015052 81.26069016 -76.16455078 77.53710938 C-75.98302078 59.1173715 -68.40954175 41.85475855 -56 28.3125 C-55.43667969 27.68085937 -54.87335938 27.04921875 -54.29296875 26.3984375 C-45.59404526 17.14946498 -35.11912548 11.84812015 -23.19140625 8.03125 C-21.05786621 7.33147929 -18.96991285 6.55728819 -16.875 5.75 C-14.3145901 4.7668026 -11.77623293 3.95115251 -9.125 3.25 C-5.30352833 2.1035585 -4.08624629 0.02253445 0 0 Z " fill="#2B96D3" transform="translate(156,26.6875)"/>
<path d="M0 0 C2.625 0.4375 2.625 0.4375 4.59375 2.51171875 C6.84094845 5.74854882 8.34370426 9.03410736 9.75 12.6875 C10.00136719 13.30496094 10.25273437 13.92242187 10.51171875 14.55859375 C13.87521247 23.0994024 14.94481546 31.36353792 15.25 40.5 C15.28867188 41.46099609 15.32734375 42.42199219 15.3671875 43.41210938 C15.46038626 45.75372814 15.54619185 48.09536037 15.625 50.4375 C17.605 50.9325 17.605 50.9325 19.625 51.4375 C19.625 52.0975 19.625 52.7575 19.625 53.4375 C20.346875 53.705625 21.06875 53.97375 21.8125 54.25 C24.60090126 55.42732498 27.06595724 56.82895884 29.625 58.4375 C29.625 57.1175 29.625 55.7975 29.625 54.4375 C31.10406892 54.41060784 32.58327483 54.39115379 34.0625 54.375 C35.29806641 54.35759766 35.29806641 54.35759766 36.55859375 54.33984375 C38.625 54.4375 38.625 54.4375 39.625 55.4375 C39.82798351 58.24769396 39.94433064 61.05565866 40.05078125 63.87109375 C40.33788908 66.54186364 40.33788908 66.54186364 42.40234375 67.62109375 C43.13582031 67.89050781 43.86929688 68.15992187 44.625 68.4375 C46.05143452 69.29648429 47.46828886 70.17158294 48.875 71.0625 C49.58140625 71.50851563 50.2878125 71.95453125 51.015625 72.4140625 C51.54671875 72.75179687 52.0778125 73.08953125 52.625 73.4375 C52.625 71.4575 52.625 69.4775 52.625 67.4375 C55.595 67.4375 58.565 67.4375 61.625 67.4375 C61.625 72.3875 61.625 77.3375 61.625 82.4375 C63.935 82.7675 66.245 83.0975 68.625 83.4375 C71.30695747 84.50600143 73.63330189 86.00986968 76.0625 87.5625 C76.69865234 87.92859375 77.33480469 88.2946875 77.99023438 88.671875 C79.80859375 89.8203125 79.80859375 89.8203125 82.625 92.4375 C83.03515625 96.2421875 83.03515625 96.2421875 82.625 99.4375 C65.66307608 95.82203322 65.66307608 95.82203322 57.5 93.375 C51.78898493 91.67695138 46.10586797 90.5345797 40.24707031 89.51586914 C35.87863101 88.73624934 31.88040842 87.59955611 27.73046875 86.06640625 C23.77224678 84.88408021 19.73153597 84.72669267 15.625 84.4375 C14.965 79.4875 14.305 74.5375 13.625 69.4375 C10.55483845 91.69072767 9.10043016 114.0340497 7.625 136.4375 C6.965 136.4375 6.305 136.4375 5.625 136.4375 C2.91171113 129.50939348 0.83619677 122.78436463 -0.375 115.4375 C-0.56835938 116.45070313 -0.76171875 117.46390625 -0.9609375 118.5078125 C-1.22374923 119.85941568 -1.48678183 121.21097592 -1.75 122.5625 C-1.87632812 123.22765625 -2.00265625 123.8928125 -2.1328125 124.578125 C-2.9324274 128.656161 -3.97369485 132.52603085 -5.375 136.4375 C-5.705 136.4375 -6.035 136.4375 -6.375 136.4375 C-6.93317738 131.37433853 -7.48410024 126.31045158 -8.02905273 121.24584961 C-8.21436056 119.53243055 -8.40146012 117.81920408 -8.59057617 116.10620117 C-10.37533184 99.91965714 -11.6677931 83.73631592 -11.375 67.4375 C-12.035 67.4375 -12.695 67.4375 -13.375 67.4375 C-13.43558594 68.41332031 -13.49617188 69.38914062 -13.55859375 70.39453125 C-13.68427734 72.30298828 -13.68427734 72.30298828 -13.8125 74.25 C-13.93431641 76.14685547 -13.93431641 76.14685547 -14.05859375 78.08203125 C-14.375 81.4375 -14.375 81.4375 -15.375 84.4375 C-16.06980469 84.52386719 -16.76460938 84.61023438 -17.48046875 84.69921875 C-25.87515618 85.85894109 -33.99914029 87.69513825 -42.21362305 89.76049805 C-43.082854 89.97617432 -43.95208496 90.19185059 -44.84765625 90.4140625 C-45.62375244 90.61080566 -46.39984863 90.80754883 -47.19946289 91.01025391 C-49.375 91.4375 -49.375 91.4375 -53.375 91.4375 C-53.375 92.0975 -53.375 92.7575 -53.375 93.4375 C-60.43835826 95.31605273 -67.45948213 96.88733805 -74.68359375 98.0078125 C-77.26372604 98.41973493 -79.81665408 98.90818705 -82.375 99.4375 C-82.83203125 96.26953125 -82.83203125 96.26953125 -82.375 92.4375 C-80.26833103 90.13690537 -77.74252821 88.68773454 -75.0625 87.125 C-74.37220703 86.69638672 -73.68191406 86.26777344 -72.97070312 85.82617188 C-71.68495748 85.02987916 -70.39282176 84.24374601 -69.0925293 83.47143555 C-67.49073772 82.50717295 -65.93063115 81.47458743 -64.375 80.4375 C-63.385 80.4375 -62.395 80.4375 -61.375 80.4375 C-61.38660156 79.51066406 -61.39820312 78.58382812 -61.41015625 77.62890625 C-61.41917969 76.43136719 -61.42820312 75.23382813 -61.4375 74 C-61.44910156 72.80503906 -61.46070312 71.61007813 -61.47265625 70.37890625 C-61.375 67.4375 -61.375 67.4375 -60.375 66.4375 C-53.84957627 66.20021186 -53.84957627 66.20021186 -51.375 67.4375 C-51.375 69.0875 -51.375 70.7375 -51.375 72.4375 C-50.76011719 72.004375 -50.14523438 71.57125 -49.51171875 71.125 C-48.70347656 70.568125 -47.89523438 70.01125 -47.0625 69.4375 C-46.26199219 68.880625 -45.46148437 68.32375 -44.63671875 67.75 C-42.375 66.4375 -42.375 66.4375 -39.375 66.4375 C-39.045 62.4775 -38.715 58.5175 -38.375 54.4375 C-35.405 54.4375 -32.435 54.4375 -29.375 54.4375 C-29.375 55.7575 -29.375 57.0775 -29.375 58.4375 C-28.385 58.4375 -27.395 58.4375 -26.375 58.4375 C-26.375 57.7775 -26.375 57.1175 -26.375 56.4375 C-24.2578125 54.9296875 -24.2578125 54.9296875 -21.5 53.3125 C-20.59507812 52.77367187 -19.69015625 52.23484375 -18.7578125 51.6796875 C-16.375 50.4375 -16.375 50.4375 -14.375 50.4375 C-14.42720703 48.85775391 -14.42720703 48.85775391 -14.48046875 47.24609375 C-14.85924374 30.95115571 -11.80484095 16.9570205 -4.375 2.4375 C-2.375 0.4375 -2.375 0.4375 0 0 Z " fill="#111A72" transform="translate(155.375,29.5625)"/>
<path d="M0 0 C0.70125 -0.01675781 1.4025 -0.03351562 2.125 -0.05078125 C2.74375 0.06910156 3.3625 0.18898438 4 0.3125 C4.99 1.7975 4.99 1.7975 6 3.3125 C8.57728801 3.97156105 8.57728801 3.97156105 11.5625 4.25 C17.36780484 5.10392384 21.80142981 6.68031256 27 9.3125 C28.0828125 9.8075 29.165625 10.3025 30.28125 10.8125 C38.51795912 14.68017211 45.22222882 19.14990868 52 25.3125 C52.70640625 25.91449219 53.4128125 26.51648438 54.140625 27.13671875 C65.63529706 37.56790737 73.12025324 53.29656822 73.91796875 68.67578125 C74.07315952 75.55590527 74.07416831 82.43132903 74 89.3125 C69.56515794 88.26481942 65.31469667 86.7718827 61 85.3125 C61 80.3625 61 75.4125 61 70.3125 C58.03 70.3125 55.06 70.3125 52 70.3125 C52 72.2925 52 74.2725 52 76.3125 C48.96191226 75.27086992 46.89319709 74.2260405 44.375 72.1875 C42.11188022 70.00267786 42.11188022 70.00267786 39 70.3125 C38.67 66.3525 38.34 62.3925 38 58.3125 C35.03 57.9825 32.06 57.6525 29 57.3125 C29 58.6325 29 59.9525 29 61.3125 C25.4124787 59.97999209 22.1635377 58.481783 19 56.3125 C19 55.6525 19 54.9925 19 54.3125 C17.35 53.9825 15.7 53.6525 14 53.3125 C13.9906543 52.7548999 13.98130859 52.1972998 13.97167969 51.62280273 C13.56086318 26.19369199 13.56086318 26.19369199 2 4.3125 C0.33382885 4.27186168 -1.33388095 4.269779 -3 4.3125 C-9.13034319 15.81739065 -14.25203121 27.13594115 -13.96484375 40.50390625 C-13.80803185 52.00301386 -13.80803185 52.00301386 -17.21875 55.75 C-20.38066119 57.63987795 -23.25267993 59.3125 -27 59.3125 C-27 59.9725 -27 60.6325 -27 61.3125 C-27.99 61.3125 -28.98 61.3125 -30 61.3125 C-30 59.9925 -30 58.6725 -30 57.3125 C-32.97 57.3125 -35.94 57.3125 -39 57.3125 C-39 62.2625 -39 67.2125 -39 72.3125 C-39.33 71.3225 -39.66 70.3325 -40 69.3125 C-40.61488281 69.66183594 -41.22976562 70.01117188 -41.86328125 70.37109375 C-42.67152344 70.82613281 -43.47976562 71.28117187 -44.3125 71.75 C-45.11300781 72.20246094 -45.91351563 72.65492187 -46.73828125 73.12109375 C-49 74.3125 -49 74.3125 -52 75.3125 C-52 73.6625 -52 72.0125 -52 70.3125 C-54.97 70.3125 -57.94 70.3125 -61 70.3125 C-60.94457031 71.18132812 -60.88914062 72.05015625 -60.83203125 72.9453125 C-60.81118511 76.67260183 -60.96912117 79.72146342 -62 83.3125 C-65.528837 86.48619846 -70.1147273 89.3125 -75 89.3125 C-75.57421111 63.5368013 -71.44515689 44.33913095 -53.125 25.0625 C-44.34328585 16.67604891 -34.64102618 11.69512838 -23.19140625 8.03125 C-21.05786621 7.33147929 -18.96991285 6.55728819 -16.875 5.75 C-14.3145901 4.7668026 -11.77623293 3.95115251 -9.125 3.25 C-5.30352833 2.1035585 -4.08624629 0.02253445 0 0 Z " fill="#38B2E3" transform="translate(156,26.6875)"/>
<path d="M0 0 C2.39038421 2.39038421 2.92142652 4.32626158 4.0625 7.5 C8.67755237 18.75425053 16.85401871 26.00883145 27.87475586 30.81811523 C34.43935745 33.35029285 40.59586556 33.3512726 47.5625 33.1875 C48.66658203 33.17396484 49.77066406 33.16042969 50.90820312 33.14648438 C53.60599272 33.11144815 56.30272636 33.06232591 59 33 C55.3558226 35.4294516 53.28758728 35.16179575 49 35 C49 37.97 49 40.94 49 44 C61.46820744 42.48476646 71.7078573 39.44367819 83 34 C83.99 33.67 84.98 33.34 86 33 C86 33.66 86 34.32 86 35 C83.73531253 36.53696789 81.48757769 37.94082595 79.125 39.3125 C78.43897705 39.71549316 77.7529541 40.11848633 77.04614258 40.53369141 C57.36223586 52 57.36223586 52 49 52 C49 55.96 49 59.92 49 64 C24.91 64 0.82 64 -24 64 C-24 60.37 -24 56.74 -24 53 C-24.66 53 -25.32 53 -26 53 C-26 56.63 -26 60.26 -26 64 C-50.09 64 -74.18 64 -99 64 C-99 52.45 -99 40.9 -99 29 C-91.08 29 -83.16 29 -75 29 C-74.67 28.34 -74.34 27.68 -74 27 C-73.1234375 27.433125 -72.246875 27.86625 -71.34375 28.3125 C-62.80386639 32.18642755 -55.07409031 33.60165027 -45.6875 33.625 C-44.69878906 33.6353125 -43.71007812 33.645625 -42.69140625 33.65625 C-31.25872185 33.44283989 -20.84928464 29.22691579 -12 22 C-5.97494076 15.49981025 -2.48464582 8.45106505 0 0 Z " fill="#101972" transform="translate(155,181)"/>
<path d="M0 0 C2.50260992 1.25130496 2.68722294 2.17358316 3.8125 4.6875 C8.87793086 15.05869238 17.1008496 20.15670156 27.640625 24.23828125 C45.12195716 29.88208882 63.89971143 25.5499621 80.06640625 18.3046875 C83 17 83 17 86 16 C86 16.66 86 17.32 86 18 C83.7352978 19.53697789 81.48761171 20.94085155 79.125 22.3125 C78.09379028 22.91807739 78.09379028 22.91807739 77.04174805 23.53588867 C71.79872243 26.58935704 66.56169123 29.56003223 61 32 C60.13890625 32.391875 59.2778125 32.78375 58.390625 33.1875 C46.37124397 37.96869025 31.99097494 37.67829804 19.87109375 33.33984375 C15.12876577 31.12675736 11.07886869 28.25248079 7 25 C5.96875 24.236875 4.9375 23.47375 3.875 22.6875 C3.25625 22.130625 2.6375 21.57375 2 21 C2 20.34 2 19.68 2 19 C1.18917969 19.66386719 0.37835938 20.32773438 -0.45703125 21.01171875 C-7.28239008 26.49356831 -13.76094099 30.83113115 -22 34 C-23.08667969 34.54333984 -23.08667969 34.54333984 -24.1953125 35.09765625 C-37.27071482 39.30436647 -52.95629141 35.98763831 -64.86328125 30.07470703 C-72.0128169 26.37226893 -78.76534254 22.11164463 -85 17 C-84.34 16.67 -83.68 16.34 -83 16 C-80.90498534 17.01903431 -78.8487014 18.11801007 -76.8125 19.25 C-62.90610368 26.49265337 -44.24771046 29.02599117 -28.86328125 25.0859375 C-17.93499986 21.42348644 -7.48006188 15.43399549 -1.90234375 4.93359375 C-1.20016599 3.31695194 -0.58842245 1.66142811 0 0 Z " fill="#278BCB" transform="translate(155,198)"/>
<path d="M0 0 C4.29 0 8.58 0 13 0 C13.92984963 25.05533598 13.96567008 49.94513144 13 75 C12.31292969 75.04898438 11.62585938 75.09796875 10.91796875 75.1484375 C9.56638672 75.26058594 9.56638672 75.26058594 8.1875 75.375 C6.84751953 75.47941406 6.84751953 75.47941406 5.48046875 75.5859375 C2.75601501 75.86645036 2.75601501 75.86645036 0 78 C0.18175781 77.34515625 0.36351562 76.6903125 0.55078125 76.015625 C1.08473172 74.07697405 1.61288583 72.1367217 2.13671875 70.1953125 C2.69055666 68.14536041 3.25476238 66.09816508 3.83203125 64.0546875 C5.81953371 56.71169813 6.64486961 49.59244292 7 42 C6.8040625 43.1859375 6.608125 44.371875 6.40625 45.59375 C4.32026744 57.2273932 0.92203139 66.78680914 -5 77 C-5.495 77.85980469 -5.99 78.71960938 -6.5 79.60546875 C-13.03897165 90.10126132 -23.37996506 102.60486134 -35.85546875 105.7109375 C-36.56316406 105.80632812 -37.27085937 105.90171875 -38 106 C-34.78671436 103.32226197 -31.44958586 100.92057511 -28 98.5625 C-24.26964362 95.95455173 -21.02826838 93.42672474 -18 90 C-17.40832031 89.3503125 -16.81664062 88.700625 -16.20703125 88.03125 C-6.1423454 76.35076352 -0.9380082 62.97222256 2 48 C2.19078125 47.08089844 2.3815625 46.16179687 2.578125 45.21484375 C4.35549578 31.67062011 3.52825236 18.20328049 -0.22265625 5.10546875 C-1 2 -1 2 0 0 Z " fill="#101870" transform="translate(266,95)"/>
<path d="M0 0 C2.64 0 5.28 0 8 0 C8 0.99 8 1.98 8 3 C9.65 3 11.3 3 13 3 C13 5.31 13 7.62 13 10 C16.63 10 20.26 10 24 10 C23.85913398 12.60452271 23.71251536 15.20850197 23.5625 17.8125 C23.52318359 18.55048828 23.48386719 19.28847656 23.44335938 20.04882812 C23.25618965 23.23071342 23.01279207 25.96162378 22 29 C18.37 29 14.74 29 11 29 C11 23.39 11 17.78 11 12 C7.37 12 3.74 12 0 12 C0 8.04 0 4.08 0 0 Z " fill="#10166E" transform="translate(118,85)"/>
<path d="M0 0 C2.625 0.4375 2.625 0.4375 4.578125 2.4921875 C6.9253632 5.86970201 8.48150468 9.19628142 10 13 C10.28488281 13.65935547 10.56976563 14.31871094 10.86328125 14.99804688 C12.82393719 19.85091418 12.82393719 19.85091418 11.7890625 22.90234375 C11.40492188 23.40894531 11.02078125 23.91554688 10.625 24.4375 C9.84125 23.7775 9.0575 23.1175 8.25 22.4375 C4.56803756 19.98578754 1.17138401 19.81279788 -3.17578125 19.96875 C-5.64777672 20.2472927 -5.64777672 20.2472927 -7.25 22.875 C-7.62125 23.720625 -7.9925 24.56625 -8.375 25.4375 C-10.5625 26.25 -10.5625 26.25 -12.375 26.4375 C-11.87547752 20.34743141 -10.48507313 15.59348361 -7.9375 10.0625 C-7.62490234 9.35222656 -7.31230469 8.64195313 -6.99023438 7.91015625 C-3.75046185 0.69087455 -3.75046185 0.69087455 0 0 Z " fill="#14247A" transform="translate(155.375,29.5625)"/>
<path d="M0 0 C0.33 0 0.66 0 1 0 C1.33 6.93 1.66 13.86 2 21 C3.32 21.33 4.64 21.66 6 22 C6 22.66 6 23.32 6 24 C6.721875 24.268125 7.44375 24.53625 8.1875 24.8125 C10.97590126 25.98982498 13.44095724 27.39145884 16 29 C16 27.68 16 26.36 16 25 C17.47906892 24.97310784 18.95827483 24.95365379 20.4375 24.9375 C21.26121094 24.92589844 22.08492187 24.91429688 22.93359375 24.90234375 C25 25 25 25 26 26 C26.28859409 28.30583761 26.50639292 30.62074066 26.6875 32.9375 C26.79449219 34.20464844 26.90148437 35.47179687 27.01171875 36.77734375 C27 40 27 40 25 42 C24.505 41.505 24.505 41.505 24 41 C24 39.35 24 37.7 24 36 C16.41 36 8.82 36 1 36 C0.67 37.32 0.34 38.64 0 40 C-1.26506589 31.61308171 -0.90051817 23.37447196 -0.5625 14.9375 C-0.50916183 13.48504809 -0.45642267 12.03257405 -0.40429688 10.58007812 C-0.27643515 7.05310359 -0.14047379 3.52649739 0 0 Z " fill="#111C74" transform="translate(169,59)"/>
<path d="M0 0 C0.33 0.66 0.66 1.32 1 2 C1.99 2 2.98 2 4 2 C5.08851726 5.65430796 6.0674795 9.26070662 6.8125 13 C7.90363409 18.11857212 9.60791089 23.01101361 11.32348633 27.94726562 C13 32.80570824 13 32.80570824 13 35 C13.66 35 14.32 35 15 35 C15.38478516 35.90878906 15.38478516 35.90878906 15.77734375 36.8359375 C19.07878555 44.06131517 23.41405637 49.3945251 29 55 C29.53109375 55.55429688 30.0621875 56.10859375 30.609375 56.6796875 C36.37090999 62.17393479 43.96597127 65.43319521 51 69 C51 69.33 51 69.66 51 70 C49.35 70 47.7 70 46 70 C46 69.34 46 68.68 46 68 C45.195625 67.79375 44.39125 67.5875 43.5625 67.375 C28.59021019 61.59622148 16.38338527 47.86980184 9.3671875 33.703125 C8.09933163 30.49760262 7.01665001 27.29379599 6 24 C5.53354194 22.54395335 5.06603751 21.08824163 4.59765625 19.6328125 C3.36404584 15.76522012 2.17244891 11.88654341 1 8 C0.67 8 0.34 8 0 8 C0 5.36 0 2.72 0 0 Z " fill="#153084" transform="translate(37,133)"/>
<path d="M0 0 C0.33 0 0.66 0 1 0 C1.23264031 4.22823768 1.37452126 8.45483337 1.5 12.6875 C1.56703125 13.88568359 1.6340625 15.08386719 1.703125 16.31835938 C1.7789566 19.72130251 1.76818602 22.68119634 1 26 C-0.95048349 27.98603918 -2.60704409 28.9445102 -5.16992188 30.00195312 C-5.77384766 30.33130859 -6.37777344 30.66066406 -7 31 C-8.13478487 34.66945626 -8.13478487 34.66945626 -8 38 C-7.39671875 37.7834375 -6.7934375 37.566875 -6.171875 37.34375 C-5.37265625 37.0653125 -4.5734375 36.786875 -3.75 36.5 C-2.96109375 36.2215625 -2.1721875 35.943125 -1.359375 35.65625 C1 35 1 35 5 35 C5 35.66 5 36.32 5 37 C0.02684097 41.4205858 -4.44963372 42.25687711 -11 42 C-11.53972548 37.88209452 -11.80993824 34.09231953 -11 30 C-9.03125 28.5 -9.03125 28.5 -6.5625 27.375 C-3.96111938 26.19402304 -3.96111938 26.19402304 -2 24 C-0.62318129 18.84982511 -0.95701889 13.37490417 -1.03125 8.0859375 C-0.98991614 5.32690239 -0.55354271 2.69852071 0 0 Z " fill="#226AAF" transform="translate(81,91)"/>
<path d="M0 0 C0.33 0.66 0.66 1.32 1 2 C0.01200396 4.14016061 -1.06829772 6.23793743 -2.1875 8.3125 C-5.7119814 15.02387216 -8.03742142 21.66166271 -10 29 C-11.18771723 25.57056481 -10.80226223 23.62215325 -9.5625 20.25 C-9.27503906 19.45078125 -8.98757812 18.6515625 -8.69140625 17.828125 C-8.46324219 17.22484375 -8.23507813 16.6215625 -8 16 C-8.66 16 -9.32 16 -10 16 C-10.41958984 17.27037109 -10.41958984 17.27037109 -10.84765625 18.56640625 C-11.60753999 20.8306022 -12.38582591 23.08871668 -13.18359375 25.33984375 C-16.25455917 34.15093144 -18.39549351 42.80343843 -20 52 C-20.33 52 -20.66 52 -21 52 C-20.69242325 35.92212436 -15.68551049 21.97566894 -8 8 C-7.34 8.33 -6.68 8.66 -6 9 C-3.03 4.545 -3.03 4.545 0 0 Z " fill="#20549D" transform="translate(77,64)"/>
<path d="M0 0 C0.33 0 0.66 0 1 0 C1.65776877 3.85925273 2.05460356 7.49320404 2 11.41015625 C1.50685727 19.93719639 1.50685727 19.93719639 5.06640625 27.1171875 C6.69762785 27.98002459 8.35302376 28.7989895 10.03125 29.56640625 C12 31 12 31 12.59375 33.77734375 C12.56558784 36.56891755 12.39803696 39.23831146 12 42 C7.30976546 41.43393721 2.65499974 40.81462495 -2 40 C-2 39.34 -2 38.68 -2 38 C-2.66 37.34 -3.32 36.68 -4 36 C0.71403788 36.47939368 4.66579301 36.96834048 9 39 C9.13478487 35.66945626 9.13478487 35.66945626 8 32 C6.14143138 30.96279738 6.14143138 30.96279738 3.96875 30.125 C1.78125 28.8449707 1.78125 28.8449707 0 27 C-1.03558609 22.37800362 -0.75326248 17.89477292 -0.5 13.1875 C-0.46390625 11.92228516 -0.4278125 10.65707031 -0.390625 9.35351562 C-0.29640876 6.23260256 -0.16498197 3.11784192 0 0 Z " fill="#257EC0" transform="translate(229,90)"/>
<path d="M0 0 C15.90693006 1.6922266 30.41813236 9.77699139 40.5859375 22.0703125 C42.87913501 24.96292781 45.12147163 27.81405364 47 31 C46.67 31.99 46.34 32.98 46 34 C45.5875 33.3709375 45.175 32.741875 44.75 32.09375 C34.92143761 17.52641646 22.98815579 8.86752833 6 4 C3.99744449 3.34104941 1.99674168 2.67636316 0 2 C0 1.34 0 0.68 0 0 Z " fill="#2665AA" transform="translate(167,40)"/>
<path d="M0 0 C0 0.66 0 1.32 0 2 C-1.63195312 2.41958984 -1.63195312 2.41958984 -3.296875 2.84765625 C-21.13095251 7.62987635 -34.11888936 15.88540259 -45 31 C-45.33 30.34 -45.66 29.68 -46 29 C-35.37706492 14.76074659 -19.21727126 -0.93742787 0 0 Z " fill="#2563A7" transform="translate(145,40)"/>
<path d="M0 0 C1.1953125 1.59765625 1.1953125 1.59765625 2 4 C-3.51408734 18.58381031 -16.26170172 31.9015469 -30 39 C-32.84765625 39.703125 -32.84765625 39.703125 -35 40 C-31.78671436 37.32226197 -28.44958586 34.92057511 -25 32.5625 C-21.26964362 29.95455173 -18.02826838 27.42672474 -15 24 C-14.39671875 23.32710937 -13.7934375 22.65421875 -13.171875 21.9609375 C-7.41806834 15.2188816 -3.6823752 7.98615121 0 0 Z " fill="#173C8D" transform="translate(263,161)"/>
<path d="M0 0 C0.33 0 0.66 0 1 0 C1.33 3.63 1.66 7.26 2 11 C2.66 10.67 3.32 10.34 4 10 C3.5453059 12.97976203 3.08633791 15.95876531 2.625 18.9375 C2.49867188 19.76830078 2.37234375 20.59910156 2.2421875 21.45507812 C-0.26872052 37.58766215 -0.26872052 37.58766215 -5 45 C-6.68085442 40.89360883 -5.25289997 37.19589725 -4.125 33.125 C-1.96055233 25.07922555 -0.8200698 17.45373276 -0.4375 9.125 C-0.37272461 7.80628906 -0.37272461 7.80628906 -0.30664062 6.4609375 C-0.20130661 4.30744203 -0.10022351 2.15373936 0 0 Z " fill="#153084" transform="translate(270,118)"/>
<path d="M0 0 C0.33 0 0.66 0 1 0 C1.66638684 14.41370055 -0.97115627 27.52167771 -6 41 C-6.495 39.515 -6.495 39.515 -7 38 C-7.33 37.67 -7.66 37.34 -8 37 C-8.33 36.34 -8.66 35.68 -9 35 C-8.33030877 33.22638852 -7.58520309 31.48121748 -6.8125 29.75 C-2.96151129 20.20858384 -1.60603103 10.11704196 0 0 Z " fill="#288AC9" transform="translate(273,130)"/>
<path d="M0 0 C9.27722765 11.67048348 13.25287071 28.33349889 13 43 C12.67 43 12.34 43 12 43 C11.76925781 41.77925781 11.53851563 40.55851562 11.30078125 39.30078125 C8.82295753 26.63032643 5.26516723 15.35849289 -0.3984375 3.70703125 C-0.59695312 3.14371094 -0.79546875 2.58039063 -1 2 C-0.67 1.34 -0.34 0.68 0 0 Z " fill="#2058A0" transform="translate(242,73)"/>
<path d="M0 0 C1.94677652 3.50070577 2.98256413 7.08997181 4.0625 10.9375 C4.40410156 12.14277344 4.74570312 13.34804687 5.09765625 14.58984375 C5.83782665 17.3871111 6.47650835 20.15587525 7 23 C6.34 23 5.68 23 5 23 C5.350625 23.763125 5.70125 24.52625 6.0625 25.3125 C7 28 7 28 6 31 C1.51968714 21.23618093 -0.56539163 10.74244098 0 0 Z " fill="#2579BC" transform="translate(38,139)"/>
<path d="M0 0 C3.48910165 0.68437721 5.11688597 2.71029641 7.23046875 5.4375 C6.90046875 6.4275 6.57046875 7.4175 6.23046875 8.4375 C5.67359375 7.95023438 5.11671875 7.46296875 4.54296875 6.9609375 C1.85094252 5.18747427 0.42030604 5.03332466 -2.76953125 5.0625 C-3.61515625 5.05476563 -4.46078125 5.04703125 -5.33203125 5.0390625 C-8.20318557 5.5083858 -9.60394152 6.54260899 -11.76953125 8.4375 C-9.38913501 1.6625261 -7.11433588 -0.18569229 0 0 Z " fill="#37A5D8" transform="translate(157.76953125,44.5625)"/>
<path d="M0 0 C0.99 0.845625 1.98 1.69125 3 2.5625 C3.6496875 3.11292969 4.299375 3.66335937 4.96875 4.23046875 C6.24866386 5.34547063 7.50336034 6.49077633 8.71875 7.67578125 C14.94717732 13.6173731 22.37254563 17.17634123 30 21 C30 21.33 30 21.66 30 22 C28.35 22 26.7 22 25 22 C25 21.34 25 20.68 25 20 C24.195625 19.79375 23.39125 19.5875 22.5625 19.375 C14.46410928 16.24930534 6.81907563 10.41657 1 4 C0.25 1.7578125 0.25 1.7578125 0 0 Z " fill="#1D5BA6" transform="translate(58,181)"/>
<path d="M0 0 C0.33 0 0.66 0 1 0 C1.65124853 3.85108381 2.05643649 7.50225291 2.03515625 11.41015625 C1.63525623 19.85499854 1.63525623 19.85499854 4.84375 27.22265625 C7.02251076 28.64300877 7.02251076 28.64300877 9.25390625 29.765625 C11 31 11 31 11.52734375 33.109375 C11.5 35.375 11.5 35.375 11 39 C10.67 39 10.34 39 10 39 C10 36.69 10 34.38 10 32 C9.278125 31.731875 8.55625 31.46375 7.8125 31.1875 C4.89682427 29.95643691 2.51456003 28.93630247 0 27 C-0.56762695 24.1809082 -0.56762695 24.1809082 -0.48828125 20.80078125 C-0.47216797 19.59228516 -0.45605469 18.38378906 -0.43945312 17.13867188 C-0.39755859 15.87603516 -0.35566406 14.61339844 -0.3125 13.3125 C-0.27866211 11.40114258 -0.27866211 11.40114258 -0.24414062 9.45117188 C-0.18512262 6.2996104 -0.10282975 3.15038721 0 0 Z " fill="#2880C0" transform="translate(229,90)"/>
<path d="M0 0 C0.33 0 0.66 0 1 0 C1 1.98 1 3.96 1 6 C1.67546875 5.7834375 2.3509375 5.566875 3.046875 5.34375 C4.38492188 4.92609375 4.38492188 4.92609375 5.75 4.5 C6.63171875 4.2215625 7.5134375 3.943125 8.421875 3.65625 C11 3 11 3 15 3 C15 3.66 15 4.32 15 5 C11.92461939 7.96554559 9.44126223 8.43802011 5.25 8.6875 C4.26515625 8.75324219 3.2803125 8.81898438 2.265625 8.88671875 C1.51796875 8.92410156 0.7703125 8.96148437 0 9 C0 6.03 0 3.06 0 0 Z " fill="#2479BD" transform="translate(71,123)"/>
<path d="M0 0 C0.66 0.66 1.32 1.32 2 2 C1.32195312 2.43828125 0.64390625 2.8765625 -0.0546875 3.328125 C-7.83037521 8.62679308 -13.30361687 14.58605233 -19 22 C-19.33 21.34 -19.66 20.68 -20 20 C-14.16740346 12.18183868 -8.39397435 5.11827704 0 0 Z " fill="#2976B6" transform="translate(119,49)"/>
<path d="M0 0 C1.27875 -0.061875 2.5575 -0.12375 3.875 -0.1875 C4.95394531 -0.23970703 4.95394531 -0.23970703 6.0546875 -0.29296875 C6.69664062 -0.19628906 7.33859375 -0.09960938 8 0 C8.66 0.99 9.32 1.98 10 3 C12.81294014 3.72964939 12.81294014 3.72964939 16 4.0625 C21.79367263 4.79367263 21.79367263 4.79367263 24 7 C21.37405216 6.8863485 18.74988453 6.75960946 16.125 6.625 C15.37863281 6.5940625 14.63226563 6.563125 13.86328125 6.53125 C8.2265625 6.2265625 8.2265625 6.2265625 6 4 C3.68234271 3.28072705 1.34904126 2.6090107 -1 2 C-0.67 1.34 -0.34 0.68 0 0 Z " fill="#2F84BF" transform="translate(152,27)"/>
<path d="M0 0 C0.66 0.66 1.32 1.32 2 2 C-4.15337386 8.93337899 -12.5082282 16.78310618 -22 18 C-18.78671436 15.32226197 -15.44958586 12.92057511 -12 10.5625 C-8.24648271 7.9596145 -5.07608863 5.36447194 -2 2 C-1.34 1.34 -0.68 0.68 0 0 Z " fill="#1C539F" transform="translate(250,183)"/>
<path d="M0 0 C0.33 0.66 0.66 1.32 1 2 C0.01200396 4.14016061 -1.06829772 6.23793743 -2.1875 8.3125 C-5.7119814 15.02387216 -8.03742142 21.66166271 -10 29 C-11.00677859 25.8511393 -10.95869659 23.76379809 -10.1875 20.5625 C-10.01605469 19.82128906 -9.84460938 19.08007812 -9.66796875 18.31640625 C-8.2564356 13.4214404 -6.15204293 9.45591783 -3.375 5.1875 C-2.74335937 4.21167969 -2.11171875 3.23585938 -1.4609375 2.23046875 C-0.73777344 1.12638672 -0.73777344 1.12638672 0 0 Z " fill="#2669AD" transform="translate(77,64)"/>
<path d="M0 0 C0.66 0 1.32 0 2 0 C2 0.66 2 1.32 2 2 C-0.47410219 3.6317293 -2.93659659 5.14700164 -5.5 6.625 C-6.57314453 7.25535156 -6.57314453 7.25535156 -7.66796875 7.8984375 C-9.44146033 8.93888589 -11.22025266 9.97028904 -13 11 C-13.33 10.34 -13.66 9.68 -14 9 C-14.99 8.67 -15.98 8.34 -17 8 C-15.85660156 7.50628906 -14.71320313 7.01257813 -13.53515625 6.50390625 C-12.044217 5.85689488 -10.5533345 5.2097527 -9.0625 4.5625 C-8.30775391 4.23701172 -7.55300781 3.91152344 -6.77539062 3.57617188 C-3.12971311 2.19897394 -3.12971311 2.19897394 0 0 Z " fill="#216DB4" transform="translate(239,214)"/>
<path d="M0 0 C1.47906892 -0.02689216 2.95827483 -0.04634621 4.4375 -0.0625 C5.26121094 -0.07410156 6.08492187 -0.08570312 6.93359375 -0.09765625 C9 0 9 0 10 1 C10.28859409 3.30583761 10.50639292 5.62074066 10.6875 7.9375 C10.79449219 9.20464844 10.90148437 10.47179687 11.01171875 11.77734375 C11 15 11 15 9 17 C8.67 12.38 8.34 7.76 8 3 C5.69 2.67 3.38 2.34 1 2 C1 2.99 1 3.98 1 5 C-0.32 5 -1.64 5 -3 5 C-2.67 4.34 -2.34 3.68 -2 3 C-1.34 3.33 -0.68 3.66 0 4 C0 2.68 0 1.36 0 0 Z " fill="#215BA3" transform="translate(185,84)"/>
<path d="M0 0 C4.09480199 3.74381897 7.7448683 7.8668907 10 13 C9.67 13.99 9.34 14.98 9 16 C8.38125 15.01 7.7625 14.02 7.125 13 C6.42375 12.01 5.7225 11.02 5 10 C4.34 10 3.68 10 3 10 C0.4606772 6.58168085 -0.3636198 4.24223102 0 0 Z " fill="#183485" transform="translate(232,59)"/>
<path d="M0 0 C0.33 0.66 0.66 1.32 1 2 C1.66 2 2.32 2 3 2 C2.34 3.32 1.68 4.64 1 6 C0.34 6 -0.32 6 -1 6 C-2.58969247 8.01791336 -2.58969247 8.01791336 -4.125 10.5 C-4.66382812 11.3353125 -5.20265625 12.170625 -5.7578125 13.03125 C-6.16773437 13.6809375 -6.57765625 14.330625 -7 15 C-7.74609375 13.359375 -7.74609375 13.359375 -8 11 C-6.34765625 8.203125 -6.34765625 8.203125 -4.0625 5.25 C-3.31097656 4.26515625 -2.55945313 3.2803125 -1.78515625 2.265625 C-0.90150391 1.14414062 -0.90150391 1.14414062 0 0 Z " fill="#162E81" transform="translate(78,59)"/>
<path d="M0 0 C5.96576606 0.55764656 8.19093047 4.08466416 11.90234375 8.421875 C16.29211685 13.81712685 16.29211685 13.81712685 18 17 C17.67 17.99 17.34 18.98 17 20 C16.5875 19.3709375 16.175 18.741875 15.75 18.09375 C11.68187434 12.06420661 7.29865762 6.96977543 2 2 C1.34 1.34 0.68 0.68 0 0 Z " fill="#2A7AB8" transform="translate(196,54)"/>
<path d="M0 0 C0.33 0 0.66 0 1 0 C1.24911914 8.58077055 0.69882188 16.58173087 -1 25 C-3.40853451 20.76653741 -2.79006582 17.64616687 -2 13 C-1.64455053 10.66686174 -1.29044777 8.33351802 -0.9375 6 C-0.62610943 3.99982697 -0.3139878 1.99976696 0 0 Z " fill="#2474B7" transform="translate(273,130)"/>
<path d="M0 0 C-2.35968744 2.09749995 -3.54616994 2.96905704 -6.75 3.1875 C-7.86375 3.0946875 -7.86375 3.0946875 -9 3 C-9 3.66 -9 4.32 -9 5 C-10.45463481 5.38909985 -11.91391207 5.76088029 -13.375 6.125 C-14.18710938 6.33382812 -14.99921875 6.54265625 -15.8359375 6.7578125 C-16.55007812 6.83773437 -17.26421875 6.91765625 -18 7 C-18.66 6.34 -19.32 5.68 -20 5 C-17.60712296 4.1572257 -15.21128981 3.32562998 -12.8125 2.5 C-11.80219727 2.14228516 -11.80219727 2.14228516 -10.77148438 1.77734375 C-7.06795533 0.51272408 -3.92059464 -0.30451221 0 0 Z " fill="#2582C4" transform="translate(230,201)"/>
<path d="M0 0 C0.33 0 0.66 0 1 0 C1.33 3.63 1.66 7.26 2 11 C2.66 10.67 3.32 10.34 4 10 C3.58846263 14.97093824 3.20399168 19.44508386 1 24 C0.67 24 0.34 24 0 24 C0 16.08 0 8.16 0 0 Z " fill="#13257A" transform="translate(270,118)"/>
<path d="M0 0 C-1.53643852 3.68069887 -3.78150945 5.98775204 -6.625 8.75 C-7.85089844 9.94882812 -7.85089844 9.94882812 -9.1015625 11.171875 C-9.72804688 11.77515625 -10.35453125 12.3784375 -11 13 C-11.66 12.67 -12.32 12.34 -13 12 C-2.63106796 0 -2.63106796 0 0 0 Z " fill="#349CD2" transform="translate(109,48)"/>
<path d="M0 0 C0.66 0 1.32 0 2 0 C1.68950274 1.43793392 1.3765224 2.8753318 1.0625 4.3125 C0.88847656 5.11300781 0.71445313 5.91351563 0.53515625 6.73828125 C0 9 0 9 -1 12 C-1.99 12.33 -2.98 12.66 -4 13 C-3.50269348 8.02693484 -2.44697666 4.36200187 0 0 Z " fill="#34A0D5" transform="translate(67,80)"/>
<path d="M0 0 C2.31 0.66 4.62 1.32 7 2 C7 2.99 7 3.98 7 5 C4 7 4 7 1 7 C0.67 4.69 0.34 2.38 0 0 Z " fill="#13287D" transform="translate(130,177)"/>
<path d="M0 0 C1.32 0 2.64 0 4 0 C4.81752303 1.58074564 5.62881997 3.16471223 6.4375 4.75 C6.88996094 5.63171875 7.34242187 6.5134375 7.80859375 7.421875 C8.83455398 9.64198566 9.51508603 11.61444619 10 14 C6.07511907 10.29939798 2.97784457 6.5093075 0 2 C0 1.34 0 0.68 0 0 Z " fill="#18418F" transform="translate(48,168)"/>
<path d="M0 0 C3.63 0 7.26 0 11 0 C10.67 0.99 10.34 1.98 10 3 C6.37 3 2.74 3 -1 3 C-0.67 2.01 -0.34 1.02 0 0 Z " fill="#0F156A" transform="translate(139,207)"/>
<path d="M0 0 C-6.07439825 5.88183807 -6.07439825 5.88183807 -9.9375 6.375 C-10.618125 6.25125 -11.29875 6.1275 -12 6 C-4.8 -1.6 -4.8 -1.6 0 0 Z " fill="#3495CB" transform="translate(92,45)"/>
<path d="M0 0 C4.49797113 1.68673918 8.72886302 3.81673892 13 6 C13 6.99 13 7.98 13 9 C7.97290493 7.42903279 3.97133531 4.38006951 0 1 C0 0.67 0 0.34 0 0 Z " fill="#2068AF" transform="translate(70,214)"/>
<path d="M0 0 C0.66 0.33 1.32 0.66 2 1 C1.67 2.65 1.34 4.3 1 6 C-3.455 6.495 -3.455 6.495 -8 7 C-5.4837822 4.39391727 -2.94865641 2.10618315 0 0 Z " fill="#142B7F" transform="translate(203,164)"/>
<path d="M0 0 C2.39105598 2.14926381 3.63278854 3.99036913 4.75 7 C5.01296875 7.680625 5.2759375 8.36125 5.546875 9.0625 C6 11 6 11 5 14 C4.15675328 12.421924 3.32576082 10.8372958 2.5 9.25 C2.0359375 8.36828125 1.571875 7.4865625 1.09375 6.578125 C0 4 0 4 0 0 Z " fill="#142D81" transform="translate(44,155)"/>
<path d="M0 0 C0.66 0 1.32 0 2 0 C2.4726477 8.19256018 2.4726477 8.19256018 0.5 11.5625 C0.005 12.036875 -0.49 12.51125 -1 13 C-1.07654536 8.48382401 -1.10228696 4.40914783 0 0 Z " fill="#2A87C5" transform="translate(142,97)"/>
<path d="M0 0 C3.59391114 1.33488128 6.75490696 2.96022723 10 5 C9.67 5.99 9.34 6.98 9 8 C4.7257442 6.4169423 2.73468206 3.49431596 0 0 Z " fill="#38A4D6" transform="translate(218,43)"/>
<path d="M0 0 C1.64826111 2.96687001 2.44271087 5.65626525 3 9 C1.35 9.66 -0.3 10.32 -2 11 C-1.125 3.375 -1.125 3.375 0 0 Z " fill="#193788" transform="translate(145,45)"/>
<path d="M0 0 C0.33 0 0.66 0 1 0 C1.01417969 0.83144531 1.02835938 1.66289063 1.04296875 2.51953125 C1.09066406 3.60621094 1.13835937 4.69289063 1.1875 5.8125 C1.22230469 6.89144531 1.25710937 7.97039062 1.29296875 9.08203125 C1.7222154 12.2163444 1.7222154 12.2163444 4.55078125 13.88671875 C5.35902344 14.25410156 6.16726562 14.62148437 7 15 C5 16 5 16 0 15 C0 10.05 0 5.1 0 0 Z " fill="#2981C1" transform="translate(217,97)"/>
<path d="M0 0 C0.33 1.65 0.66 3.3 1 5 C0.34 4.525625 -0.32 4.05125 -1 3.5625 C-4.7933028 1.58682146 -7.75524068 1.35972537 -12 1 C-12 0.67 -12 0.34 -12 0 C-10.56359829 -0.19573608 -9.12580496 -0.38127816 -7.6875 -0.5625 C-6.88699219 -0.66691406 -6.08648437 -0.77132812 -5.26171875 -0.87890625 C-3 -1 -3 -1 0 0 Z " fill="#2E84C0" transform="translate(164,48)"/>
<path d="M0 0 C1.258125 0.12375 2.51625 0.2475 3.8125 0.375 C4.87404297 0.47941406 4.87404297 0.47941406 5.95703125 0.5859375 C8 1 8 1 11 3 C6.545 3.495 6.545 3.495 2 4 C2 3.34 2 2.68 2 2 C1.34 1.34 0.68 0.68 0 0 Z " fill="#226EB4" transform="translate(225,126)"/>
<path d="M0 0 C4.75 0.75 4.75 0.75 7 3 C7.26991906 5.68839385 7.08737357 8.29141936 7 11 C6.67 11 6.34 11 6 11 C6 8.69 6 6.38 6 4 C5.195625 3.71125 4.39125 3.4225 3.5625 3.125 C1 2 1 2 0 0 Z " fill="#298CCA" transform="translate(233,118)"/>
<path d="M0 0 C0 0.66 0 1.32 0 2 C-3.47325181 3.1577506 -6.36067448 3.06866652 -10 3 C-6.68152292 -0.06320961 -4.44849969 -0.3033068 0 0 Z " fill="#2259A0" transform="translate(145,40)"/>
<path d="M0 0 C2.83374881 3.20336822 3.5205537 5.78087253 4 10 C1.28312788 7.65361044 0.05484124 5.42823404 -1 2 C-0.67 1.34 -0.34 0.68 0 0 Z " fill="#1B418D" transform="translate(242,73)"/>
<path d="M0 0 C1.65 1.65 3.3 3.3 5 5 C4.67 5.99 4.34 6.98 4 8 C3.01 7.67 2.02 7.34 1 7 C0.67 4.69 0.34 2.38 0 0 Z " fill="#152A7E" transform="translate(232,59)"/>
<path d="M0 0 C6.625 0.75 6.625 0.75 10 3 C7.03 3 4.06 3 1 3 C0.67 2.01 0.34 1.02 0 0 Z " fill="#22589F" transform="translate(167,40)"/>
<path d="M0 0 C-3.69172595 3.53790403 -7.09390595 3.59115883 -12 4 C-8.47340299 0.47340299 -4.89254977 -0.27957427 0 0 Z " fill="#2272B8" transform="translate(230,201)"/>
<path d="M0 0 C1.98 0.495 1.98 0.495 4 1 C3.25 6.75 3.25 6.75 1 9 C1 7.35 1 5.7 1 4 C0.01 4.495 0.01 4.495 -1 5 C-0.67 3.35 -0.34 1.7 0 0 Z " fill="#247BBE" transform="translate(265,162)"/>
<path d="M0 0 C2.35448165 2.55068845 2.98327924 3.71017358 3.1875 7.25 C3.125625 8.1575 3.06375 9.065 3 10 C2.01 9.34 1.02 8.68 0 8 C-0.40843923 5.28796348 -0.13336867 2.7562858 0 0 Z " fill="#1B4794" transform="translate(37,133)"/>
<path d="M0 0 C0.66 0.99 1.32 1.98 2 3 C0.02 5.97 0.02 5.97 -2 9 C-2.6875 7.3125 -2.6875 7.3125 -3 5 C-1.5625 2.25 -1.5625 2.25 0 0 Z " fill="#193989" transform="translate(69,72)"/>
</svg>
